<?xml version="1.0" encoding="UTF-8" standalone="no"?>
<!--
Author: JonFeaster.com
Name: RPN Calculator
-->
<svg xmlns="http://www.w3.org/2000/svg" fill="currentColor" width="450" height="68" viewBox="0 0 2192 330">
  <style>
      :root {
         --color-primary: var(--color-primary-hs) 62%;
         --color-primary-dark: var(--color-primary-hs) 38%;
         --color-primary-hs: 207 73%;
         color: hsl(var(--color-primary-dark));
      }
      @media (prefers-color-scheme: dark) {
         :root {
            color: hsl(var(--color-primary));
         }
      }
      @media (prefers-color-scheme: light) {
         :root {
            color: hsl(var(--color-primary-dark));
         }
      }
  </style>
  <path d="M 0,165 V 0 H 1096 2192 V 165 330 H 1096 0 Z m 2182,0 V 10 H 1390.5 599 V 165 320 H 1390.5 2182 Z M 713.5,279.33368 c -15.8197,-1.93344 -32.53918,-7.01144 -44.5,-13.51542 -29.82902,-16.22024 -49.32552,-42.74512 -56.6134,-77.02219 -2.37709,-11.18019 -2.39369,-34.03449 -0.0335,-46.07095 1.88587,-9.61732 6.46854,-23.41345 10.37209,-31.22512 7.58047,-15.169805 23.24419,-33.051112 36.77477,-41.981141 12.33631,-8.141824 28.28806,-14.604442 43.54418,-17.641286 10.52979,-2.096034 36.60976,-1.625155 47.95603,0.865856 33.11398,7.269987 59.59948,26.763391 73.3782,54.006571 l 2.65528,5.25 h -12.37526 -12.37527 l -3.79527,-5.75 C 793.54318,98.758562 782.8477,88.367786 775.75987,84.169479 759.90937,74.780818 745.22929,70.795073 726.5,70.795073 c -25.53924,0 -46.46572,7.92158 -63.73477,24.126365 -9.46137,8.878272 -15.28653,16.794042 -20.71557,28.150182 -7.01103,14.66529 -8.44273,21.79018 -8.4252,41.92838 0.014,16.12351 0.22675,18.19191 2.7045,26.29659 4.97838,16.28417 13.40122,30.24881 24.97733,41.41116 18.60418,17.9392 39.26702,26.40196 64.69371,26.49623 15.86948,0.0588 26.661,-2.37969 40.5,-9.15164 11.75105,-5.75024 20.96894,-13.08566 30.27368,-24.09122 l 6.72632,-7.95583 12.22405,-0.003 12.22406,-0.003 -3.06502,5.19827 c -19.04677,32.30341 -47.28285,51.39175 -82.38309,55.69317 -8.49904,1.04154 -22.36624,1.253 -29,0.44224 z m 212.83414,-0.74682 c -21.0888,-4.02538 -35.84669,-11.91152 -49.5494,-26.47759 -5.91575,-6.28847 -8.71284,-10.34662 -12.64241,-18.34216 -6.59773,-13.42449 -8.13463,-19.56799 -8.83198,-35.30429 -0.64275,-14.50427 0.79143,-24.35957 5.28811,-36.33853 9.34814,-24.90306 30.82559,-43.91792 57.90154,-51.26258 10.64947,-2.88879 33.45129,-3.16467 43.97237,-0.53202 14.59253,3.65144 27.68666,12.02258 38.21533,24.43123 L 1006,141.02184 V 126.51092 112 h 11 11 v 82 82 h -11 -11 v -13.96298 -13.96298 l -10.25,10.30483 c -11.05956,11.11873 -18.85199,15.90052 -31.25,19.17644 -8.29186,2.19096 -29.13976,2.75444 -38.16586,1.03155 z m 35.74427,-22.19524 c 18.17254,-5.68363 34.23844,-21.8606 39.93789,-40.21399 6.0672,-19.53764 4.993,-35.34957 -3.59683,-52.94558 C 987.90129,141.68591 966.88328,128.84469 942,128.76188 c -18.44061,-0.0614 -32.52741,5.73092 -45.52462,18.71908 -16.0826,16.07139 -22.39893,36.51848 -18.08762,58.55277 7.63301,39.01083 46.05378,62.12916 83.69065,50.35789 z M 1197.5,279.07434 C 1162.628,273.4086 1136.3608,251.76915 1125.7922,220 c -3.0037,-9.0292 -3.1632,-10.29293 -3.2193,-25.5 -0.07,-18.92099 1.0117,-23.90027 8.4999,-39.13174 10.6374,-21.6374 30.8602,-37.70949 56.0195,-44.52161 7.0334,-1.90436 10.7779,-2.26328 22.9077,-2.19578 17.6613,0.0983 25.8718,1.98637 40.5,9.31342 17.2508,8.64066 32.2021,24.10038 38.9609,40.28571 l 1.5659,3.75 h -12.4091 -12.4092 l -3.1714,-4.94226 c -7.5263,-11.72871 -23.0427,-22.88328 -37.0371,-26.62555 -14.9271,-3.99171 -35.1464,-1.39361 -49,6.29631 -8.3446,4.63195 -19.6653,15.96269 -24.2502,24.2715 -6.1946,11.22618 -8.2613,19.69757 -8.1729,33.5 0.096,14.94333 2.9122,24.5784 10.502,35.9261 6.748,10.08903 14.4746,16.79245 25.4211,22.05459 11.3843,5.47264 17.4929,6.85555 30,6.79164 19.8872,-0.10161 30.006,-4.62846 45.7979,-20.48856 l 10.7978,-10.84456 11.9942,0.2804 11.9943,0.28039 -5.2921,8.87668 c -12.1747,20.42118 -29.8552,33.8351 -52.2921,39.67309 -8.8667,2.30709 -27.7313,3.368 -36,2.02457 z m 183,0.21111 c -23.3372,-3.22739 -43.2104,-17.69288 -51.0218,-37.13817 -5.6423,-14.04542 -5.7389,-15.21355 -6.1933,-74.89728 L 1322.8642,112 h 11.0047 11.0048 l 0.3901,53.25 c 0.3345,45.66018 0.6275,54.14355 2.056,59.51916 5.9246,22.29539 21.8396,34.35018 45.5963,34.53675 24.9018,0.19557 42.6691,-12.79686 49.828,-36.43687 1.39,-4.5901 1.6798,-13.022 1.9974,-58.11904 L 1445.113,112 H 1456.0565 1467 v 82 82 h -11 -11 v -12.11001 -12.11001 l -4.3393,5.89455 c -8.4213,11.43955 -18.7138,17.94722 -32.8685,20.78188 -7.118,1.42545 -20.123,1.8205 -27.2922,0.82904 z m 251.8341,-0.69859 c -21.0888,-4.02538 -35.8466,-11.91152 -49.5494,-26.47759 -5.9157,-6.28847 -8.7128,-10.34662 -12.6424,-18.34216 -6.5977,-13.42449 -8.1346,-19.56799 -8.832,-35.30429 -0.6427,-14.50427 0.7915,-24.35957 5.2882,-36.33853 9.3481,-24.90306 30.8256,-43.91792 57.9015,-51.26258 10.6495,-2.88879 33.4513,-3.16467 43.9724,-0.53202 14.5925,3.65144 27.6866,12.02258 38.2153,24.43123 L 1712,141.02184 V 126.51092 112 h 11 11 v 82 82 h -11 -11 v -13.96298 -13.96298 l -10.25,10.30483 c -11.0596,11.11873 -18.852,15.90052 -31.25,19.17644 -8.2919,2.19096 -29.1398,2.75444 -38.1659,1.03155 z m 35.7443,-22.19524 c 18.1725,-5.68363 34.2385,-21.8606 39.9379,-40.21399 6.0672,-19.53764 4.993,-35.34957 -3.5968,-52.94558 -10.5182,-21.54614 -31.5362,-34.38736 -56.4195,-34.47017 -18.4406,-0.0614 -32.5274,5.73092 -45.5246,18.71908 -16.0826,16.07139 -22.399,36.51848 -18.0876,58.55277 7.633,39.01083 46.0537,62.12916 83.6906,50.35789 z M 1940.5,278.3917 c -10.3795,-1.85382 -16.2975,-3.815 -25.5,-8.45049 -20.5182,-10.33543 -34.6005,-27.45272 -41.6562,-50.63374 -2.4216,-7.95573 -2.6887,-10.40313 -2.7623,-25.30747 -0.094,-18.94693 1.3897,-26.02038 8.3659,-39.89536 20.582,-40.93554 72.8408,-57.776182 115.5526,-37.23738 25.9712,12.48876 42.3003,36.63557 45.675,67.54248 2.3993,21.97369 -2.8608,43.45677 -15.0268,61.37207 -4.8449,7.13446 -15.8771,17.49562 -23.5022,22.0728 -17.4654,10.48408 -39.8474,14.34109 -61.146,10.53709 z m 33,-21.06011 c 14.9687,-3.74707 29.5978,-15.29144 36.7882,-29.03111 5.34,-10.20378 7.7118,-20.35697 7.7118,-33.01304 0,-20.42746 -6.0342,-36.44213 -18.3508,-48.70226 -12.2305,-12.17453 -26.0048,-17.80666 -43.6806,-17.8605 -11.8596,-0.0361 -18.153,1.37758 -28.8914,6.48989 -6.6504,3.16605 -10.0196,5.61723 -16.01,11.64767 -8.3632,8.41907 -12.6253,15.55781 -16.202,27.13776 -2.9864,9.66863 -3.2688,27.98465 -0.586,38 9.3681,34.97214 43.2209,54.34332 79.2208,45.33159 z M 1067,165 V 54 h 11 11 v 111 111 h -11 -11 z m 439,0 V 54 h 11 11 v 111 111 h -11 -11 z m 287,39 v -72 h -17.5 -17.5 v -10 -10 h 17.5 17.5 V 83 54 h 11 11 v 29 29 h 18.5 18.5 v 10 10 h -18.5 -18.5 v 72 72 h -11 -11 z m 280,-10 v -82 h 11 11 l 0.044,11.75 0.044,11.75 1.8822,-3.56 c 6.8425,-12.94171 20.5745,-21.04203 39.7794,-23.46525 l 5.25,-0.66243 V 118.71116 129.61 l -7.3204,1.23004 c -18.1736,3.05371 -30.6486,13.11005 -36.8936,29.74069 -2.1809,5.80797 -2.2291,6.94873 -2.5591,60.66927 l -0.3364,54.75 h -10.9453 -10.9452 V 194 Z M 92.239028,234.25 92.5,192.5 l 28.5,41.72223 28.5,41.72223 25.30902,0.0278 c 19.9938,0.0219 25.14848,-0.23475 24.54463,-1.22223 -0.42041,-0.6875 -13.73694,-18.98752 -29.5923,-40.66672 -15.85535,-21.67919 -28.47544,-39.71554 -28.04463,-40.08076 0.4308,-0.36523 3.69762,-1.44541 7.2596,-2.40041 17.7992,-4.77211 34.11521,-17.8741 41.8871,-33.63596 5.86276,-11.89003 7.45411,-20.37738 6.8373,-36.46615 C 197.08673,105.48498 194.29107,95.760525 187.1699,84.869476 175.75044,67.404696 159.6123,57.924505 136.5,55.103962 131.39098,54.480475 110.74717,54.004416 88.75,54.002817 L 50,54 V 165 276 H 70.989028 91.978057 Z M 92,126.63291 V 93 l 10.75,0.0271 c 12.54254,0.03161 27.05349,1.304357 32.93841,2.889001 7.50264,2.020253 13.43397,7.010809 17.31159,14.565789 3.29906,6.42775 3.49876,7.37683 3.47844,16.53154 -0.0195,8.79027 -0.30529,10.26708 -3.01038,15.55647 -3.69631,7.22757 -9.2472,11.64027 -18.26017,14.51604 -5.47201,1.74595 -10.07033,2.23606 -24.95789,2.66008 L 92,160.26581 Z m 175,106.9945 v -42.37258 l 22.75,-0.56156 c 24.41908,-0.60276 32.41388,-1.79042 42.19472,-6.26824 22.53884,-10.31862 36.63477,-37.37959 34.75362,-66.71904 -0.76143,-11.87568 -2.72107,-19.242728 -7.84518,-29.493045 C 350.27942,71.061932 335.54349,60.459832 314,55.942314 310.60891,55.231227 292.49145,54.602296 266.75,54.302074 L 225,53.815145 V 164.90757 276 h 21 21 z M 267,122.5 V 93 l 9.75,0.0271 c 22.39444,0.06223 34.06795,2.586224 40.59158,8.77652 8.22186,7.80175 10.41609,23.91042 4.76564,34.98623 -5.51976,10.81961 -18.03878,15.10369 -44.35722,15.17928 L 267,152 Z m 169.24401,73.75151 0.25599,-79.7485 45.67908,79.4985 45.67908,79.49849 23.07092,0.26843 L 574,276.03686 V 165.01843 54 H 553.50591 533.01183 L 532.75591,134.35253 532.5,214.70505 487,134.39651 441.5,54.087972 417.75,54.043986 394,54 v 111 111 h 20.99401 20.99402 z" />
</svg>