<?xml version="1.0" encoding="UTF-8" standalone="no"?>
<svg
  xmlns="http://www.w3.org/2000/svg"
  fill="none"
  width="1496"
  height="214"
>
  <style>
    :root {
      --light-hsl: 0deg 0% 100%;
      --light: hsl(var(--light-hsl));
      --primary: var(--light);
    }
    .primary-fill {
      fill: var(--primary);
    }
  </style>
  <defs>
    <clipPath id="waves-bottom">
      <path d="M0 0h1496v214H0z" />
    </clipPath>
  </defs>
  <g opacity=".08" clip-path="url(#waves-bottom)" class="primary-fill">
    <path d="M1569.5 115.707v.484C1016.72-184.723 463.932 226.405-88.854 36.569v-4.062C463.932 223.554 1016.72-186.42 1569.5 115.707Z" />
    <path d="M1569.5 121.488v.508C1016.72-165.002 463.932 260.262-88.854 84.758v-4.166C463.932 257.33 1016.72-166.699 1569.5 121.488Z" />
    <path d="M1569.5 127.454v.508c-552.78-272.77-1105.568 166.976-1658.354 6.127v-4.246C463.932 291.949 1016.72-146.55 1569.5 127.454Z" />
    <path d="M1569.5 133.454v.519C1016.72-124.234 463.932 330.248-88.854 184.354v-4.327C463.932 327.201 1016.72-126 1569.5 133.454Z" />
    <path d="M452.794 214C825.026 133.224 1197.25-25.213 1569.5 139.57v.577C1201.9-21.786 834.332 131.539 466.764 214h-13.97Z" />
    <path d="M590.841 214c326.213-91.162 652.429-203.868 978.659-68.233v.531C1246.58 12.775 923.676 122.584 600.78 214h-9.939Z" />
    <path d="M697.068 214c290.8-90.643 581.612-175.02 872.432-61.99v.519C1281.41 41.243 993.327 123.669 705.256 214h-8.188Z" />
    <path d="M787.368 214c260.712-85.45 521.402-149.944 782.132-55.724v.531C1311.18 66.064 1052.88 129.116 794.566 214h-7.198Z" />
    <path d="M867.948 214c233.842-77.949 467.692-127.557 701.552-49.435v.542C1337.8 88.22 1106.13 136.766 874.455 214h-6.507Z" />
  </g>
</svg>