<?xml version="1.0" encoding="UTF-8" standalone="no"?>
<svg
  xmlns="http://www.w3.org/2000/svg"
  fill="none"
  width="1496"
  height="291"
>
  <style>
    :root {
      --light-hsl: 0deg 0% 100%;
      --light: hsl(var(--light-hsl));
      --primary: var(--light);
    }
    .primary-fill {
      fill: var(--primary);
    }
  </style>
  <defs>
    <clipPath id="waves-top">
      <path d="M0 0h1496v291H0z" />
    </clipPath>
  </defs>
  <g opacity=".08" clip-path="url(#waves-top)" class="primary-fill">
    <path d="M-88.855 124.976v-.7C709.035 558.616 1506.92-34.805 2304.81 239.203v5.863C1506.92-30.691 709.035 561.031-88.854 124.976Z" />
    <path d="M-88.855 116.631v-.733C709.035 530.15 1506.92-83.674 2304.81 169.664v6.013C1506.92-79.443 709.035 532.599-88.854 116.631Z" />
    <path d="M-88.855 108.07v-.733c797.89 393.665 1595.775-241.062 2393.665-8.894v6.13C1506.92-129.411 709.035 503.517-88.854 108.07Z" />
    <path d="M-88.855 99.359v-.75C709.035 471.288 1506.92-184.693 2304.81 25.89v6.246C1506.92-180.296 709.035 473.853-88.854 99.36Z" />
    <path d="M-88.855 90.515v-.75C709.035 441.174 1506.92-236.376 2304.81-47.697v6.313C1506.92-231.946 709.035 443.772-88.854 90.515Z" />
    <path d="M-88.855 81.537v-.766C709.035 410.76 1506.92-288.626 2304.81-122.05v6.346C1506.92-284.146 709.035 413.358-88.854 81.537Z" />
    <path d="M-88.855 72.56v-.75C709.035 380.08 1506.92-341.26 2304.81-197.001v6.412C1506.92-336.762 709.035 382.711-88.854 72.559Z" />
    <path d="M-88.855 63.515v-.766C709.035 349.266 1506.92-394.16 2304.81-272.287v6.429C1506.92-389.629 709.035 351.897-88.854 63.515Z" />
    <path d="M-88.855 54.438v-.783c797.89 264.731 1595.775-500.83 2393.665-401.41v6.446C1506.92-442.645 709.035 321.017-88.854 54.438Z" />
    <path d="M-88.855 45.343v-.783C709.035 287.49 1506.92-500.19 2304.81-423.14v6.429C1506.92-495.661 709.035 290.137-88.854 45.343Z" />
    <path d="M-88.855 36.3v-.784C709.035 256.692 1506.92-553.057 2304.81-498.492v6.429C1506.92-548.56 709.035 259.307-88.854 36.299Z" />
    <path d="M-88.855 27.288v-.716C709.035 226.045 1506.92-605.69 2304.81-573.377v6.362C1506.92-601.193 709.035 228.643-88.854 27.288Z" />
    <path d="M-88.855 18.36v-.782C709.035 195.63 1506.92-657.874 2304.81-647.697v6.363C1506.92-653.443 709.035 198.129-88.854 18.361Z" />
    <path d="M-88.855 9.5v-.766C709.035 165.55 1506.92-709.524 2304.81-721.283v6.229C1506.92-705.143 709.035 168.148-88.854 9.5Z" />
    <path d="M-88.855.755V.023C583.533 114.516 1255.92-503.972 1928.28-721.283H1945C1267.04-510.518 589.102 117.714-88.855.755Z" />
    <path d="M-88.855-7.806v-.733C531.572 81.138 1152-453.487 1772.44-721.283h11.28C1159.51-456.536 535.344 83.769-88.854-7.806Z" />
    <path d="M-88.855-16.167v-.716C493.073 52.589 1075-427.304 1656.93-721.283h8.87C1080.92-428.987 496.031 54.887-88.854-16.167Z" />
  </g>
</svg>